# xmcd CD database file
#
# Track frame offsets:
#	200
#	18402
#	37607
#
# Disc length: 809 seconds
#
# Revision: 0
# Processed by: cddbd v1.5.2PL0 Copyright (c) Steve Scherf et al.
# Submitted via: Feurio! 1.68 - http://www.feurio.com
#
DISCID=13032703
DTITLE=John Mayall - Mail Order Mystic
DYEAR=1993
DGENRE=
TTITLE0=Mail Order Mystic
TTITLE1=Wake Up Call
TTITLE2=I Could Cry
EXTD=
EXTT0=
EXTT1=
EXTT2=
PLAYORDER=
